<?xml version="1.0" encoding="utf-8"?>
<!-- Generator: Adobe Illustrator 29.8.1, SVG Export Plug-In . SVG Version: 9.03 Build 0)  -->
<svg version="1.1" baseProfile="tiny" id="Layer_1" xmlns="http://www.w3.org/2000/svg" xmlns:xlink="http://www.w3.org/1999/xlink"
	 x="0px" y="0px" viewBox="0 0 36 36" style="overflow:visible;" xml:space="preserve">
<style type="text/css">
	.st0{fill:#616167;}
	.st1{fill:#FFFFFF;}
	.st2{fill:#004B93;}
</style>
<path class="st0" d="M24.7,7.1H2.9c-1.1,0-2,0.9-2,2v17.8c0,1.1,0.9,2,2,2h21.8l6-10.9L24.7,7.1z"/>
<polygon class="st1" points="12,22.9 10.2,22.9 5.9,15.7 5.8,15.7 5.8,22.9 4.2,22.9 4.2,13.1 6,13.1 10.4,20.3 10.4,20.3 
	10.4,13.1 12,13.1 "/>
<rect x="13.7" y="13.1" class="st1" width="1.6" height="9.8"/>
<polygon class="st1" points="23,22.9 23,18.5 18.7,18.5 18.7,22.9 17,22.9 17,13.1 18.7,13.1 18.7,17 23.1,17 23.1,13.1 24.7,13.1 
	24.7,22.9 "/>
<path class="st2" d="M29.9,8.4c-0.4-0.7-1.4-1.3-2.2-1.3h-1.5L32.1,18l-5.9,10.9h1.5c0.8,0,1.8-0.6,2.2-1.3L35,18L29.9,8.4z"/>
</svg>
