<?xml version="1.0" encoding="UTF-8"?>
<svg id="Layer_1" xmlns="http://www.w3.org/2000/svg" version="1.1" viewBox="0 0 371.5 39">
  <!-- Generator: Adobe Illustrator 29.8.1, SVG Export Plug-In . SVG Version: 2.1.1 Build 2)  -->
  <defs>
    <style>
      .st0 {
        font-family: Helvetica-Oblique, Helvetica;
        font-size: 10.9px;
        font-style: oblique;
      }

      .st0, .st1 {
        fill: #78a22f;
      }

      .st2 {
        fill: #535557;
      }
    </style>
  </defs>
  <path class="st2" d="M54.1,19.5l-10.8,19.5H3.6c-2,0-3.6-1.6-3.6-3.6h0V3.6C0,1.6,1.6,0,3.6,0h39.7l10.8,19.5ZM20.2,28.2V10.8h-2.9v12.8h0l-8-12.8h-3.2v17.4h2.9v-12.8h0l7.9,12.8h3.2ZM26.2,28.2V10.8h-3v17.4h3ZM43.3,10.8h-3v6.9h-7.9v-6.9h-3.1v17.4h3v-7.9h7.9v7.9h3V10.8Z"/>
  <path class="st2" d="M46,39l10.8-19.5L46,0h2.7c1.6,0,3.1,1,4,2.4l9.5,17.1-9.5,17.1c-.9,1.4-2.4,2.3-4,2.3h-2.7Z"/>
  <path class="st1" d="M46,39l10.8-19.5L46,0h2.7c1.6,0,3.1,1,4,2.4l9.5,17.1-9.5,17.1c-.9,1.4-2.4,2.3-4,2.3h-2.7Z"/>
  <g>
    <path class="st2" d="M68.9,10.1h1.7l4.2,6.8h0v-6.8h1.5v9.2h-1.7l-4.2-6.7h0v6.7h-1.5v-9.2Z"/>
    <path class="st2" d="M83.6,17.8c0,.2,0,.3,0,.4,0,0,.1.1.3.1h.2c0,0,.1,0,.2,0v1c0,0-.1,0-.2,0,0,0-.2,0-.3,0,0,0-.2,0-.3,0,0,0-.2,0-.2,0-.3,0-.5,0-.7-.2-.2-.1-.3-.3-.4-.6-.3.3-.6.5-1.1.6-.4.1-.8.2-1.2.2s-.6,0-.9-.1c-.3,0-.5-.2-.7-.4-.2-.2-.4-.4-.5-.6-.1-.2-.2-.5-.2-.9s0-.7.2-1c.1-.3.3-.5.6-.6.2-.1.5-.3.8-.3.3,0,.6-.1.9-.1.3,0,.5,0,.8-.1.2,0,.5,0,.6-.1.2,0,.3-.1.4-.2.1-.1.2-.3.2-.5s0-.3-.1-.5-.2-.2-.3-.3c-.1,0-.3-.1-.4-.1-.2,0-.3,0-.5,0-.4,0-.7,0-1,.3-.3.2-.4.4-.4.8h-1.5c0-.4.1-.8.3-1.1.2-.3.4-.5.7-.7s.6-.3.9-.4c.4,0,.7-.1,1.1-.1s.6,0,1,.1c.3,0,.6.2.9.3.3.2.5.4.6.6s.2.5.2.9v3.4ZM82.2,15.9c-.2.1-.5.2-.8.3-.3,0-.7,0-1,.1-.2,0-.3,0-.4.1-.1,0-.3.1-.4.2-.1,0-.2.2-.3.3s0,.3,0,.5,0,.3.1.4.2.2.3.3c.1,0,.3.1.4.1.2,0,.3,0,.4,0s.3,0,.5,0c.2,0,.4-.1.5-.2.2-.1.3-.2.4-.4s.2-.4.2-.6v-1.1Z"/>
    <path class="st2" d="M84.5,12.6h1.1v-2h1.5v2h1.3v1.1h-1.3v3.5c0,.2,0,.3,0,.4s0,.2,0,.3.1.1.2.2.2,0,.4,0,.2,0,.3,0c.1,0,.2,0,.3,0v1.1c-.2,0-.3,0-.5,0-.2,0-.3,0-.5,0-.4,0-.7,0-.9-.1-.2,0-.4-.2-.6-.3-.1-.1-.2-.3-.3-.5,0-.2,0-.5,0-.7v-3.9h-1.1v-1.1Z"/>
    <path class="st2" d="M89.5,10.1h1.5v1.4h-1.5v-1.4ZM89.5,12.6h1.5v6.6h-1.5v-6.6Z"/>
    <path class="st2" d="M95.6,19.4c-.5,0-1,0-1.4-.3-.4-.2-.8-.4-1.1-.7s-.5-.7-.7-1.1c-.1-.4-.2-.9-.2-1.4s0-1,.2-1.4c.1-.4.4-.8.7-1.1s.6-.6,1.1-.7c.4-.2.9-.3,1.4-.3s1,0,1.4.3.8.4,1.1.7.5.7.7,1.1c.1.4.2.9.2,1.4s0,1-.2,1.4c-.1.4-.4.8-.7,1.1s-.6.6-1.1.7c-.4.2-.9.3-1.4.3ZM95.6,18.3c.3,0,.6,0,.8-.2.2-.1.4-.3.6-.5.2-.2.3-.5.3-.8,0-.3.1-.6.1-.9s0-.6-.1-.8-.2-.5-.3-.8c-.2-.2-.4-.4-.6-.5-.2-.1-.5-.2-.8-.2s-.6,0-.8.2c-.2.1-.4.3-.6.5-.2.2-.3.5-.3.8,0,.3-.1.6-.1.8s0,.6.1.9c0,.3.2.5.3.8.2.2.4.4.6.5.2.1.5.2.8.2Z"/>
    <path class="st2" d="M100.2,12.6h1.4v1h0c.2-.3.5-.6.9-.8s.8-.3,1.2-.3c.7,0,1.3.2,1.7.6.4.4.6.9.6,1.7v4.6h-1.5v-4.2c0-.5-.1-.9-.3-1.1-.2-.2-.5-.4-1-.4s-.5,0-.7.1c-.2,0-.4.2-.5.4-.1.2-.2.3-.3.6,0,.2-.1.4-.1.7v3.9h-1.5v-6.6Z"/>
    <path class="st2" d="M113.2,17.8c0,.2,0,.3,0,.4,0,0,.1.1.3.1h.2c0,0,.1,0,.2,0v1c0,0-.1,0-.2,0,0,0-.2,0-.3,0,0,0-.2,0-.3,0,0,0-.2,0-.2,0-.3,0-.5,0-.7-.2-.2-.1-.3-.3-.4-.6-.3.3-.6.5-1.1.6-.4.1-.8.2-1.2.2s-.6,0-.9-.1c-.3,0-.5-.2-.7-.4-.2-.2-.4-.4-.5-.6-.1-.2-.2-.5-.2-.9s0-.7.2-1c.1-.3.3-.5.6-.6.2-.1.5-.3.8-.3.3,0,.6-.1.9-.1.3,0,.5,0,.8-.1.2,0,.5,0,.6-.1.2,0,.3-.1.4-.2.1-.1.2-.3.2-.5s0-.3-.1-.5-.2-.2-.3-.3c-.1,0-.3-.1-.4-.1-.2,0-.3,0-.5,0-.4,0-.7,0-1,.3-.3.2-.4.4-.4.8h-1.5c0-.4.1-.8.3-1.1.2-.3.4-.5.7-.7s.6-.3.9-.4c.4,0,.7-.1,1.1-.1s.6,0,1,.1c.3,0,.6.2.9.3.3.2.5.4.6.6s.2.5.2.9v3.4ZM111.7,15.9c-.2.1-.5.2-.8.3-.3,0-.7,0-1,.1-.2,0-.3,0-.4.1-.1,0-.3.1-.4.2-.1,0-.2.2-.3.3s0,.3,0,.5,0,.3.1.4.2.2.3.3c.1,0,.3.1.4.1.2,0,.3,0,.4,0s.3,0,.5,0c.2,0,.4-.1.5-.2.2-.1.3-.2.4-.4s.2-.4.2-.6v-1.1Z"/>
    <path class="st2" d="M114.8,10.1h1.5v9.2h-1.5v-9.2Z"/>
    <path class="st2" d="M121.6,10.1h1.6v9.2h-1.6v-9.2Z"/>
    <path class="st2" d="M125,12.6h1.4v1h0c.2-.3.5-.6.9-.8s.8-.3,1.2-.3c.7,0,1.3.2,1.7.6.4.4.6.9.6,1.7v4.6h-1.5v-4.2c0-.5-.1-.9-.3-1.1-.2-.2-.5-.4-1-.4s-.5,0-.7.1c-.2,0-.4.2-.5.4-.1.2-.2.3-.3.6,0,.2-.1.4-.1.7v3.9h-1.5v-6.6Z"/>
    <path class="st2" d="M133.5,17.1c0,.4.2.7.5.9.3.2.6.3,1,.3s.3,0,.5,0c.2,0,.3,0,.5-.1s.3-.1.4-.3c0-.1.1-.3.1-.5,0-.2,0-.3-.2-.5-.1-.1-.3-.2-.5-.3-.2,0-.4-.1-.7-.2-.3,0-.5-.1-.8-.2-.3,0-.5-.1-.8-.2-.3,0-.5-.2-.7-.3-.2-.1-.4-.3-.5-.6s-.2-.5-.2-.8,0-.7.3-.9.4-.4.7-.6c.3-.1.6-.3.9-.3.3,0,.6,0,.9,0s.7,0,1,.1.6.2.8.4c.3.2.5.4.6.6s.3.6.3.9h-1.5c0-.4-.2-.6-.5-.7-.3-.1-.5-.2-.9-.2s-.2,0-.4,0c-.1,0-.3,0-.4,0-.1,0-.2.1-.3.2,0,0-.1.2-.1.4s0,.3.2.4c.1.1.3.2.5.3.2,0,.4.1.7.2.3,0,.5.1.8.2.3,0,.5.1.8.2.3,0,.5.2.7.3.2.1.4.3.5.6.1.2.2.5.2.8s0,.7-.3,1c-.2.3-.4.5-.7.7-.3.2-.6.3-1,.4-.4,0-.7.1-1,.1s-.8,0-1.2-.1-.7-.2-.9-.4c-.3-.2-.5-.4-.6-.7-.1-.3-.2-.6-.2-1h1.5Z"/>
    <path class="st2" d="M138.4,12.6h1.1v-2h1.5v2h1.3v1.1h-1.3v3.5c0,.2,0,.3,0,.4s0,.2,0,.3.1.1.2.2.2,0,.4,0,.2,0,.3,0c.1,0,.2,0,.3,0v1.1c-.2,0-.3,0-.5,0-.2,0-.3,0-.5,0-.4,0-.7,0-.9-.1-.2,0-.4-.2-.6-.3-.1-.1-.2-.3-.3-.5,0-.2,0-.5,0-.7v-3.9h-1.1v-1.1Z"/>
    <path class="st2" d="M143.3,10.1h1.5v1.4h-1.5v-1.4ZM143.3,12.6h1.5v6.6h-1.5v-6.6Z"/>
    <path class="st2" d="M145.7,12.6h1.1v-2h1.5v2h1.3v1.1h-1.3v3.5c0,.2,0,.3,0,.4s0,.2,0,.3.1.1.2.2.2,0,.4,0,.2,0,.3,0c.1,0,.2,0,.3,0v1.1c-.2,0-.3,0-.5,0-.2,0-.3,0-.5,0-.4,0-.7,0-.9-.1-.2,0-.4-.2-.6-.3-.1-.1-.2-.3-.3-.5,0-.2,0-.5,0-.7v-3.9h-1.1v-1.1Z"/>
    <path class="st2" d="M156.5,19.3h-1.4v-.9h0c-.2.3-.4.6-.8.8s-.7.3-1.1.3c-.9,0-1.5-.2-1.9-.6-.4-.4-.6-1.1-.6-2v-4.2h1.5v4.1c0,.6.1,1,.3,1.2.2.2.5.4.9.4s.6,0,.8-.1c.2,0,.4-.2.5-.4s.2-.3.3-.6c0-.2,0-.5,0-.7v-3.9h1.5v6.6Z"/>
    <path class="st2" d="M157.4,12.6h1.1v-2h1.5v2h1.3v1.1h-1.3v3.5c0,.2,0,.3,0,.4s0,.2,0,.3.1.1.2.2.2,0,.4,0,.2,0,.3,0c.1,0,.2,0,.3,0v1.1c-.2,0-.3,0-.5,0-.2,0-.3,0-.5,0-.4,0-.7,0-.9-.1-.2,0-.4-.2-.6-.3-.1-.1-.2-.3-.3-.5,0-.2,0-.5,0-.7v-3.9h-1.1v-1.1Z"/>
    <path class="st2" d="M163.5,16.3c0,.3,0,.5.1.7,0,.2.2.5.3.6.1.2.3.3.6.4s.5.2.8.2.8,0,1-.3c.3-.2.5-.5.6-.8h1.4c0,.4-.2.7-.4,1s-.4.5-.7.7-.6.3-.9.4c-.3,0-.7.1-1,.1-.5,0-1,0-1.4-.3-.4-.2-.7-.4-1-.7-.3-.3-.5-.7-.6-1.1-.1-.4-.2-.9-.2-1.4s0-.9.2-1.3c.1-.4.4-.8.6-1.1.3-.3.6-.6,1-.8.4-.2.8-.3,1.3-.3s1,.1,1.4.3c.4.2.8.5,1,.9.3.4.5.8.6,1.2.1.5.2.9,0,1.4h-4.9ZM166.9,15.3c0-.2,0-.5-.1-.7,0-.2-.2-.4-.3-.6-.1-.2-.3-.3-.5-.4-.2,0-.4-.1-.7-.1s-.5,0-.7.1c-.2,0-.4.2-.5.4s-.3.3-.4.6c0,.2-.1.4-.1.7h3.4Z"/>
    <path class="st2" d="M176.1,19.4c-.5,0-1,0-1.4-.3-.4-.2-.8-.4-1.1-.7s-.5-.7-.7-1.1c-.1-.4-.2-.9-.2-1.4s0-1,.2-1.4c.1-.4.4-.8.7-1.1s.6-.6,1.1-.7c.4-.2.9-.3,1.4-.3s1,0,1.4.3.8.4,1.1.7.5.7.7,1.1c.1.4.2.9.2,1.4s0,1-.2,1.4c-.1.4-.4.8-.7,1.1s-.6.6-1.1.7c-.4.2-.9.3-1.4.3ZM176.1,18.3c.3,0,.6,0,.8-.2.2-.1.4-.3.6-.5.2-.2.3-.5.3-.8,0-.3.1-.6.1-.9s0-.6-.1-.8-.2-.5-.3-.8c-.2-.2-.4-.4-.6-.5-.2-.1-.5-.2-.8-.2s-.6,0-.8.2c-.2.1-.4.3-.6.5-.2.2-.3.5-.3.8,0,.3-.1.6-.1.8s0,.6.1.9c0,.3.2.5.3.8.2.2.4.4.6.5.2.1.5.2.8.2Z"/>
    <path class="st2" d="M180,12.6h1.1v-.6c0-.4,0-.8.2-1,.1-.3.2-.5.4-.6.2-.1.4-.2.6-.3.2,0,.4,0,.7,0,.5,0,.8,0,1,0v1.1c0,0-.2,0-.3,0-.1,0-.2,0-.4,0s-.4,0-.5.1c-.1,0-.2.3-.2.6v.7h1.2v1.1h-1.2v5.6h-1.5v-5.6h-1.1v-1.1Z"/>
    <path class="st2" d="M188.5,10.1h6.6v1.4h-5v2.4h4.6v1.3h-4.6v2.7h5.1v1.4h-6.7v-9.2Z"/>
    <path class="st2" d="M196.4,12.6h1.4v1h0c.2-.3.5-.6.9-.8s.8-.3,1.2-.3c.7,0,1.3.2,1.7.6.4.4.6.9.6,1.7v4.6h-1.5v-4.2c0-.5-.1-.9-.3-1.1-.2-.2-.5-.4-1-.4s-.5,0-.7.1c-.2,0-.4.2-.5.4s-.2.3-.3.6c0,.2-.1.4-.1.7v3.9h-1.5v-6.6Z"/>
    <path class="st2" d="M203.1,12.6h1.6l1.7,5.1h0l1.6-5.1h1.5l-2.4,6.6h-1.6l-2.4-6.6Z"/>
    <path class="st2" d="M210.5,10.1h1.5v1.4h-1.5v-1.4ZM210.5,12.6h1.5v6.6h-1.5v-6.6Z"/>
    <path class="st2" d="M213.5,12.6h1.4v1.3h0c0-.2.1-.4.3-.5.1-.2.3-.3.4-.5s.4-.3.6-.3c.2,0,.4-.1.7-.1s.3,0,.4,0c0,0,.1,0,.2,0v1.4c-.1,0-.2,0-.3,0-.1,0-.2,0-.3,0-.2,0-.5,0-.7.1-.2,0-.4.2-.6.4-.2.2-.3.4-.4.7,0,.3-.1.6-.1,1v3.2h-1.5v-6.6Z"/>
    <path class="st2" d="M220.9,19.4c-.5,0-1,0-1.4-.3-.4-.2-.8-.4-1.1-.7s-.5-.7-.7-1.1c-.2-.4-.2-.9-.2-1.4s0-1,.2-1.4c.1-.4.4-.8.7-1.1s.6-.6,1.1-.7c.4-.2.9-.3,1.4-.3s1,0,1.4.3c.4.2.8.4,1.1.7s.5.7.7,1.1c.1.4.2.9.2,1.4s0,1-.2,1.4c-.2.4-.4.8-.7,1.1s-.6.6-1.1.7c-.4.2-.9.3-1.4.3ZM220.9,18.3c.3,0,.6,0,.8-.2.2-.1.4-.3.6-.5.2-.2.3-.5.3-.8,0-.3.1-.6.1-.9s0-.6-.1-.8-.2-.5-.3-.8c-.2-.2-.4-.4-.6-.5-.2-.1-.5-.2-.8-.2s-.6,0-.8.2c-.2.1-.4.3-.6.5-.2.2-.3.5-.3.8,0,.3-.1.6-.1.8s0,.6.1.9c0,.3.2.5.3.8.2.2.4.4.6.5.2.1.5.2.8.2Z"/>
    <path class="st2" d="M225.4,12.6h1.4v1h0c.2-.3.5-.6.9-.8s.8-.3,1.2-.3c.7,0,1.3.2,1.7.6.4.4.6.9.6,1.7v4.6h-1.5v-4.2c0-.5-.1-.9-.3-1.1-.2-.2-.5-.4-1-.4s-.5,0-.7.1c-.2,0-.4.2-.5.4s-.2.3-.3.6c0,.2-.1.4-.1.7v3.9h-1.5v-6.6Z"/>
    <path class="st2" d="M232.8,12.6h1.4v.9h0c.1-.2.2-.3.4-.4.1-.1.3-.3.4-.3.2,0,.3-.2.5-.2.2,0,.4,0,.7,0,.4,0,.8,0,1.1.3.3.2.6.5.7.8.2-.3.5-.6.9-.8.3-.2.7-.3,1.2-.3.7,0,1.2.2,1.6.5.4.3.6.9.6,1.7v4.6h-1.5v-3.9c0-.3,0-.5,0-.7,0-.2,0-.4-.1-.6,0-.2-.2-.3-.4-.4-.2,0-.4-.1-.7-.1-.5,0-.9.2-1.1.5-.2.3-.3.7-.3,1.3v3.9h-1.5v-4.3c0-.5,0-.8-.2-1s-.5-.4-.9-.4-.4,0-.5.1c-.2,0-.3.2-.5.3-.1.1-.2.3-.3.5,0,.2-.1.5-.1.7v3.9h-1.5v-6.6Z"/>
    <path class="st2" d="M245.1,16.3c0,.3,0,.5.1.7,0,.2.2.5.3.6s.3.3.6.4.5.2.8.2.8,0,1-.3c.3-.2.5-.5.6-.8h1.4c0,.4-.2.7-.4,1s-.4.5-.7.7-.6.3-.9.4c-.3,0-.7.1-1,.1-.5,0-1,0-1.4-.3-.4-.2-.7-.4-1-.7-.3-.3-.5-.7-.6-1.1-.1-.4-.2-.9-.2-1.4s0-.9.2-1.3c.1-.4.4-.8.6-1.1s.6-.6,1-.8c.4-.2.8-.3,1.3-.3s1,.1,1.4.3c.4.2.8.5,1,.9s.5.8.6,1.2.2.9,0,1.4h-4.9ZM248.6,15.3c0-.2,0-.5-.1-.7,0-.2-.2-.4-.3-.6-.1-.2-.3-.3-.5-.4s-.4-.1-.7-.1-.5,0-.7.1c-.2,0-.4.2-.5.4-.2.2-.3.3-.4.6,0,.2-.1.4-.1.7h3.4Z"/>
    <path class="st2" d="M251.1,12.6h1.4v1h0c.2-.3.5-.6.9-.8s.8-.3,1.2-.3c.7,0,1.3.2,1.7.6.4.4.6.9.6,1.7v4.6h-1.5v-4.2c0-.5-.1-.9-.3-1.1-.2-.2-.5-.4-1-.4s-.5,0-.7.1c-.2,0-.4.2-.5.4s-.2.3-.3.6c0,.2-.1.4-.1.7v3.9h-1.5v-6.6Z"/>
    <path class="st2" d="M257.9,12.6h1.1v-2h1.5v2h1.3v1.1h-1.3v3.5c0,.2,0,.3,0,.4s0,.2,0,.3.1.1.2.2c0,0,.2,0,.4,0s.2,0,.3,0,.2,0,.3,0v1.1c-.2,0-.3,0-.5,0s-.3,0-.5,0c-.4,0-.7,0-.9-.1-.2,0-.4-.2-.6-.3-.1-.1-.2-.3-.3-.5,0-.2,0-.5,0-.7v-3.9h-1.1v-1.1Z"/>
    <path class="st2" d="M268.4,17.8c0,.2,0,.3,0,.4s.1.1.3.1h.2c0,0,.1,0,.2,0v1c0,0-.1,0-.2,0,0,0-.2,0-.3,0s-.2,0-.3,0c0,0-.2,0-.2,0-.3,0-.5,0-.7-.2-.2-.1-.3-.3-.4-.6-.3.3-.6.5-1.1.6-.4.1-.8.2-1.2.2s-.6,0-.9-.1c-.3,0-.5-.2-.7-.4-.2-.2-.4-.4-.5-.6-.1-.2-.2-.5-.2-.9s0-.7.2-1c.2-.3.3-.5.6-.6.2-.1.5-.3.8-.3.3,0,.6-.1.9-.1.3,0,.5,0,.8-.1.2,0,.5,0,.6-.1.2,0,.3-.1.4-.2.1-.1.2-.3.2-.5s0-.3-.1-.5c0-.1-.2-.2-.3-.3s-.3-.1-.4-.1c-.2,0-.3,0-.5,0-.4,0-.8,0-1,.3-.3.2-.4.4-.5.8h-1.5c0-.4.1-.8.3-1.1s.4-.5.7-.7.6-.3.9-.4c.4,0,.7-.1,1.1-.1s.6,0,1,.1c.3,0,.6.2.9.3.3.2.5.4.6.6s.2.5.2.9v3.4ZM266.9,15.9c-.2.1-.5.2-.8.3-.3,0-.7,0-1,.1-.2,0-.3,0-.4.1-.1,0-.3.1-.4.2s-.2.2-.3.3,0,.3,0,.5,0,.3.1.4.2.2.3.3c.1,0,.3.1.4.1.2,0,.3,0,.4,0s.3,0,.5,0c.2,0,.4-.1.5-.2.2-.1.3-.2.4-.4s.2-.4.2-.6v-1.1Z"/>
    <path class="st2" d="M270,10.1h1.5v9.2h-1.5v-9.2Z"/>
    <path class="st2" d="M276.8,10.1h1.6v3.6h4.2v-3.6h1.6v9.2h-1.6v-4.1h-4.2v4.1h-1.6v-9.2Z"/>
    <path class="st2" d="M287,16.3c0,.3,0,.5.1.7,0,.2.2.5.3.6s.3.3.6.4.5.2.8.2.8,0,1-.3c.3-.2.5-.5.6-.8h1.4c0,.4-.2.7-.4,1s-.4.5-.7.7-.6.3-.9.4c-.3,0-.7.1-1,.1-.5,0-1,0-1.4-.3-.4-.2-.7-.4-1-.7-.3-.3-.5-.7-.6-1.1-.1-.4-.2-.9-.2-1.4s0-.9.2-1.3c.1-.4.4-.8.6-1.1s.6-.6,1-.8c.4-.2.8-.3,1.3-.3s1,.1,1.4.3c.4.2.8.5,1,.9s.5.8.6,1.2.2.9,0,1.4h-4.9ZM290.5,15.3c0-.2,0-.5-.1-.7,0-.2-.2-.4-.3-.6-.1-.2-.3-.3-.5-.4s-.4-.1-.7-.1-.5,0-.7.1c-.2,0-.4.2-.5.4-.2.2-.3.3-.4.6,0,.2-.1.4-.1.7h3.4Z"/>
    <path class="st2" d="M298.6,17.8c0,.2,0,.3,0,.4s.1.1.3.1h.2c0,0,.1,0,.2,0v1c0,0-.1,0-.2,0,0,0-.2,0-.3,0s-.2,0-.3,0c0,0-.2,0-.2,0-.3,0-.5,0-.7-.2-.2-.1-.3-.3-.4-.6-.3.3-.6.5-1.1.6-.4.1-.8.2-1.2.2s-.6,0-.9-.1c-.3,0-.5-.2-.7-.4-.2-.2-.4-.4-.5-.6-.1-.2-.2-.5-.2-.9s0-.7.2-1c.2-.3.3-.5.6-.6.2-.1.5-.3.8-.3.3,0,.6-.1.9-.1.3,0,.5,0,.8-.1.2,0,.5,0,.6-.1.2,0,.3-.1.4-.2.1-.1.2-.3.2-.5s0-.3-.1-.5c0-.1-.2-.2-.3-.3s-.3-.1-.4-.1c-.2,0-.3,0-.5,0-.4,0-.8,0-1,.3-.3.2-.4.4-.5.8h-1.5c0-.4.1-.8.3-1.1s.4-.5.7-.7.6-.3.9-.4c.4,0,.7-.1,1.1-.1s.6,0,1,.1c.3,0,.6.2.9.3.3.2.5.4.6.6s.2.5.2.9v3.4ZM297.1,15.9c-.2.1-.5.2-.8.3-.3,0-.7,0-1,.1-.2,0-.3,0-.4.1-.1,0-.3.1-.4.2s-.2.2-.3.3,0,.3,0,.5,0,.3.1.4.2.2.3.3c.1,0,.3.1.4.1.2,0,.3,0,.4,0s.3,0,.5,0c.2,0,.4-.1.5-.2.2-.1.3-.2.4-.4s.2-.4.2-.6v-1.1Z"/>
    <path class="st2" d="M300.2,10.1h1.5v9.2h-1.5v-9.2Z"/>
    <path class="st2" d="M302.6,12.6h1.1v-2h1.5v2h1.3v1.1h-1.3v3.5c0,.2,0,.3,0,.4s0,.2,0,.3.1.1.2.2c0,0,.2,0,.4,0s.2,0,.3,0,.2,0,.3,0v1.1c-.2,0-.3,0-.5,0s-.3,0-.5,0c-.4,0-.7,0-.9-.1-.2,0-.4-.2-.6-.3-.1-.1-.2-.3-.3-.5,0-.2,0-.5,0-.7v-3.9h-1.1v-1.1Z"/>
    <path class="st2" d="M307.6,10.1h1.5v3.4h0c.2-.3.4-.6.8-.8.4-.2.8-.3,1.2-.3.7,0,1.3.2,1.7.6.4.4.6.9.6,1.7v4.6h-1.5v-4.2c0-.5-.1-.9-.3-1.1-.2-.2-.5-.4-1-.4s-.5,0-.7.1c-.2,0-.4.2-.5.4s-.2.3-.3.6c0,.2-.1.4-.1.7v3.9h-1.5v-9.2Z"/>
    <path class="st2" d="M319.8,16.2c0,.4,0,.7.2.9.1.2.3.5.5.6.2.2.5.3.7.3s.6.1.9.1.7,0,.9-.1c.2,0,.5-.2.6-.3s.3-.3.3-.4.1-.3.1-.5c0-.4,0-.6-.2-.8-.2-.2-.3-.3-.5-.4-.3-.1-.7-.2-1.1-.3s-1-.2-1.6-.4c-.4-.1-.7-.2-1-.4s-.5-.4-.6-.6c-.2-.2-.3-.4-.3-.7s0-.5,0-.7c0-.5,0-.9.3-1.2.2-.3.4-.6.8-.8.3-.2.7-.4,1.1-.5.4-.1.8-.2,1.2-.2s.9,0,1.4.2c.4.1.8.3,1.1.6s.6.6.8.9c.2.4.3.8.3,1.3h-1.6c0-.6-.2-1-.6-1.3-.4-.2-.8-.4-1.4-.4s-.4,0-.6,0-.4.1-.5.2c-.2,0-.3.2-.4.4-.1.2-.2.3-.2.6s.1.6.3.8.5.3.8.4c0,0,.2,0,.4.1.2,0,.5.1.8.2s.6.2.9.2.5.1.6.2c.3,0,.6.2.8.4.2.2.4.3.6.6.2.2.3.4.3.7,0,.2.1.5.1.7,0,.5-.1,1-.3,1.3s-.5.7-.8.9-.7.4-1.2.5c-.4.1-.9.2-1.3.2s-1,0-1.5-.2c-.5-.1-.9-.3-1.2-.6s-.6-.6-.8-1c-.2-.4-.3-.9-.3-1.5h1.6Z"/>
    <path class="st2" d="M331.3,14.8c0-.4-.2-.7-.5-.9-.3-.2-.6-.3-1-.3s-.4,0-.6,0c-.2,0-.4.2-.6.4-.2.2-.3.4-.5.7-.1.3-.2.7-.2,1.2s0,.5,0,.8c0,.3.2.5.3.7.1.2.3.4.5.5.2.1.5.2.8.2s.8-.1,1.1-.4.5-.6.5-1.1h1.5c-.1.9-.5,1.5-1,2-.5.5-1.2.7-2.1.7s-1,0-1.4-.3c-.4-.2-.7-.4-1-.7s-.5-.7-.6-1.1c-.1-.4-.2-.9-.2-1.4s0-1,.2-1.4.3-.8.6-1.1c.3-.3.6-.6,1-.8.4-.2.9-.3,1.4-.3s.8,0,1.1.1c.3,0,.7.2.9.4.3.2.5.4.7.7.2.3.3.7.3,1.1h-1.5Z"/>
    <path class="st2" d="M334,10.1h1.5v1.4h-1.5v-1.4ZM334,12.6h1.5v6.6h-1.5v-6.6Z"/>
    <path class="st2" d="M338.2,16.3c0,.3,0,.5.1.7,0,.2.2.5.3.6s.3.3.6.4.5.2.8.2.8,0,1-.3c.3-.2.5-.5.6-.8h1.4c0,.4-.2.7-.4,1s-.4.5-.7.7-.6.3-.9.4c-.3,0-.7.1-1,.1-.5,0-1,0-1.4-.3-.4-.2-.7-.4-1-.7-.3-.3-.5-.7-.6-1.1-.1-.4-.2-.9-.2-1.4s0-.9.2-1.3c.1-.4.4-.8.6-1.1s.6-.6,1-.8c.4-.2.8-.3,1.3-.3s1,.1,1.4.3c.4.2.8.5,1,.9s.5.8.6,1.2.2.9,0,1.4h-4.9ZM341.6,15.3c0-.2,0-.5-.1-.7,0-.2-.2-.4-.3-.6-.1-.2-.3-.3-.5-.4s-.4-.1-.7-.1-.5,0-.7.1c-.2,0-.4.2-.5.4-.2.2-.3.3-.4.6,0,.2-.1.4-.1.7h3.4Z"/>
    <path class="st2" d="M344.2,12.6h1.4v1h0c.2-.3.5-.6.9-.8s.8-.3,1.2-.3c.7,0,1.3.2,1.7.6.4.4.6.9.6,1.7v4.6h-1.5v-4.2c0-.5-.1-.9-.3-1.1-.2-.2-.5-.4-1-.4s-.5,0-.7.1c-.2,0-.4.2-.5.4s-.2.3-.3.6c0,.2-.1.4-.1.7v3.9h-1.5v-6.6Z"/>
    <path class="st2" d="M356.1,14.8c0-.4-.2-.7-.5-.9-.3-.2-.6-.3-1-.3s-.4,0-.6,0c-.2,0-.4.2-.6.4-.2.2-.3.4-.5.7-.1.3-.2.7-.2,1.2s0,.5,0,.8c0,.3.2.5.3.7.1.2.3.4.5.5.2.1.5.2.8.2s.8-.1,1.1-.4.5-.6.5-1.1h1.5c-.1.9-.5,1.5-1,2-.5.5-1.2.7-2.1.7s-1,0-1.4-.3c-.4-.2-.7-.4-1-.7s-.5-.7-.6-1.1c-.1-.4-.2-.9-.2-1.4s0-1,.2-1.4.3-.8.6-1.1c.3-.3.6-.6,1-.8.4-.2.9-.3,1.4-.3s.8,0,1.1.1c.3,0,.7.2.9.4.3.2.5.4.7.7.2.3.3.7.3,1.1h-1.5Z"/>
    <path class="st2" d="M359.9,16.3c0,.3,0,.5.1.7,0,.2.2.5.3.6s.3.3.6.4.5.2.8.2.8,0,1-.3c.3-.2.5-.5.6-.8h1.4c0,.4-.2.7-.4,1s-.4.5-.7.7-.6.3-.9.4c-.3,0-.7.1-1,.1-.5,0-1,0-1.4-.3-.4-.2-.7-.4-1-.7-.3-.3-.5-.7-.6-1.1-.1-.4-.2-.9-.2-1.4s0-.9.2-1.3c.1-.4.4-.8.6-1.1s.6-.6,1-.8c.4-.2.8-.3,1.3-.3s1,.1,1.4.3c.4.2.8.5,1,.9s.5.8.6,1.2.2.9,0,1.4h-4.9ZM363.3,15.3c0-.2,0-.5-.1-.7,0-.2-.2-.4-.3-.6-.1-.2-.3-.3-.5-.4s-.4-.1-.7-.1-.5,0-.7.1c-.2,0-.4.2-.5.4-.2.2-.3.3-.4.6,0,.2-.1.4-.1.7h3.4Z"/>
    <path class="st2" d="M367,17.1c0,.4.2.7.5.9.3.2.6.3,1,.3s.3,0,.5,0,.3,0,.5-.1.3-.1.4-.3.1-.3.1-.5c0-.2,0-.3-.2-.5-.1-.1-.3-.2-.5-.3-.2,0-.4-.1-.7-.2-.3,0-.5-.1-.8-.2-.3,0-.5-.1-.8-.2-.3,0-.5-.2-.7-.3-.2-.1-.4-.3-.5-.6s-.2-.5-.2-.8,0-.7.3-.9c.2-.2.4-.4.7-.6.3-.1.6-.3.9-.3s.6,0,.9,0,.7,0,1,.1.6.2.8.4c.3.2.5.4.6.6.2.3.3.6.3.9h-1.5c0-.4-.2-.6-.5-.7-.3-.1-.5-.2-.9-.2s-.2,0-.4,0-.3,0-.4,0c-.1,0-.2.1-.3.2,0,0-.1.2-.1.4s0,.3.2.4.3.2.5.3.4.1.7.2c.3,0,.5.1.8.2.3,0,.5.1.8.2.3,0,.5.2.7.3.2.1.4.3.5.6.1.2.2.5.2.8s0,.7-.3,1c-.2.3-.4.5-.7.7-.3.2-.6.3-1,.4-.4,0-.7.1-1,.1s-.8,0-1.2-.1-.7-.2-.9-.4c-.3-.2-.5-.4-.6-.7-.2-.3-.2-.6-.2-1h1.5Z"/>
  </g>
  <text class="st0" transform="translate(66.9 32.2)"><tspan x="0" y="0">Your Environment. Your Health.</tspan></text>
</svg>