<?xml version="1.0" encoding="UTF-8"?>
<svg id="Layer_1" xmlns="http://www.w3.org/2000/svg" version="1.1" viewBox="0 0 279.3 39">
  <!-- Generator: Adobe Illustrator 29.8.1, SVG Export Plug-In . SVG Version: 2.1.1 Build 2)  -->
  <defs>
    <style>
      .st0 {
        font-family: HelveticaNeue-Medium, 'Helvetica Neue';
        font-size: 12.9px;
        font-weight: 500;
      }

      .st0, .st1, .st2 {
        fill: #535557;
      }

      .st1 {
        font-family: Helvetica-Oblique, Helvetica;
        font-size: 10.9px;
        font-style: oblique;
      }

      .st3 {
        fill: #004b93;
      }
    </style>
  </defs>
  <path class="st2" d="M54.1,19.5l-10.8,19.5H3.6c-2,0-3.6-1.6-3.6-3.6h0V3.6C0,1.6,1.6,0,3.6,0h39.7l10.8,19.5ZM20.2,28.2V10.8h-2.9v12.8h0l-8-12.8h-3.2v17.4h2.9v-12.8h0l7.9,12.8h3.2ZM26.2,28.2V10.8h-3v17.4h3ZM43.3,10.8h-3v6.9h-7.9v-6.9h-3.1v17.4h3v-7.9h7.9v7.9h3V10.8Z"/>
  <path class="st3" d="M46,39l10.8-19.5L46,0h2.7c1.6,0,3.1,1,4,2.4l9.5,17.1-9.5,17.1c-.9,1.4-2.4,2.3-4,2.3h-2.7Z"/>
  <text class="st0" transform="translate(68 19.3)"><tspan x="0" y="0">National Institutes of Health</tspan></text>
  <text class="st1" transform="translate(66.9 32.2)"><tspan x="0" y="0">Office of the Director, Executive Secretariat</tspan></text>
</svg>